<svg width="45" height="45" viewBox="0 0 45 45" fill="none" xmlns="http://www.w3.org/2000/svg">
<circle cx="22.5" cy="22.5" r="22.5" fill="url(#paint0_linear_156_169)"/>
<path fill-rule="evenodd" clip-rule="evenodd" d="M26.1856 6.19844C26.6699 6.37793 26.9412 6.52746 27.1625 6.73691C27.3595 6.9234 27.3537 6.92334 26.8451 6.73244C26.4135 6.57043 25.6394 6.37041 25.145 6.2931C24.6975 6.22315 23.7005 6.21933 23.3142 6.28606L23.0526 6.33127L23.3594 6.35559C23.7627 6.38756 24.1791 6.45985 24.4421 6.54351C24.8719 6.68023 25.4273 7.03334 25.6327 7.30045C25.7336 7.43171 25.8282 7.63961 25.7997 7.66779C25.7891 7.67833 25.7142 7.61837 25.6332 7.53458C25.501 7.39776 25.4229 7.34815 25.4229 7.40104C25.4229 7.41141 25.5121 7.54165 25.6211 7.69042C25.7301 7.8392 25.8606 8.05835 25.9113 8.17743C26.1295 8.69051 26.3535 8.84687 26.9016 8.8687C27.2451 8.88238 27.3744 8.85196 27.4442 8.74113C27.4671 8.70481 27.5381 8.4389 27.602 8.15025C27.6658 7.86158 27.7231 7.62025 27.7291 7.61393C27.7475 7.59467 28.2994 7.96117 28.5942 8.18836C28.747 8.30617 29.0008 8.5319 29.1581 8.68999C29.481 9.01446 29.5012 9.00506 29.3623 8.59481C29.1766 8.04597 28.8653 7.58163 28.3718 7.11713C27.6581 6.44538 26.7521 6.04736 25.9518 6.05391C25.8039 6.05511 25.8116 6.05988 26.1856 6.19844ZM22.6149 6.65312C22.5181 6.6801 22.3562 6.74589 22.2553 6.79937C22.0828 6.89078 21.2451 7.54239 20.9312 7.82941L20.7886 7.9598L21.2831 7.95993C22.2997 7.96019 23.1937 8.21725 23.6656 8.64507C23.8288 8.79304 24.0193 9.10948 23.9729 9.15549C23.9641 9.16425 23.8564 9.08908 23.7336 8.98845C23.5175 8.8114 23.1186 8.5869 23.0829 8.62228C23.0733 8.63181 23.1332 8.69472 23.216 8.76204C23.4919 8.98631 23.4992 9.1085 23.2263 8.93482C23.0793 8.84126 23.0252 8.82524 22.8565 8.82524C22.6698 8.82524 22.6416 8.83633 22.3486 9.02458C22.0654 9.20656 21.5158 9.4965 21.1891 9.63624C21.1172 9.66701 20.6995 9.82733 20.2609 9.99252L19.4635 10.2928L19.6397 10.4055C19.7367 10.4675 19.844 10.5495 19.8783 10.5878C19.9351 10.6513 19.9356 10.6574 19.8843 10.6574C19.8534 10.6574 19.7176 10.6068 19.5826 10.545C19.4477 10.4831 19.2892 10.4236 19.2304 10.4126C19.1116 10.3905 18.8521 10.4785 18.903 10.5237C18.9196 10.5384 19.0809 10.6602 19.2613 10.7944C19.6545 11.0867 19.8997 11.3447 20.0326 11.6059L20.1309 11.7991L20.2775 11.7773C20.5718 11.7336 20.7354 11.6661 20.8493 11.5416C21.0299 11.3443 21.4123 10.9768 21.4901 10.926C21.6218 10.8398 21.6399 10.9112 21.5336 11.098C21.4787 11.1946 21.4429 11.2736 21.454 11.2736C21.4651 11.2736 21.594 11.2023 21.7404 11.1151C22.3468 10.754 22.9519 10.5318 23.7813 10.366C24.719 10.1784 26.0532 10.1133 26.7004 10.2235C28.1136 10.4641 29.1669 11.4649 29.7812 13.151C29.8422 13.3186 29.9002 13.4426 29.9101 13.4266C29.9611 13.3438 30.0129 12.8253 30.0101 12.4248C30.0013 11.1358 29.5457 10.2926 28.6445 9.89728C28.3531 9.76948 27.8682 9.6243 27.539 9.56632C27.2073 9.50789 26.4391 9.49764 26.1503 9.5478C26.018 9.5708 25.9703 9.56772 25.9424 9.53435C25.8942 9.47675 25.9965 9.43907 26.3831 9.37208C26.6047 9.33365 26.8062 9.32454 27.1656 9.3367C27.4319 9.34568 27.6444 9.34789 27.638 9.34153C27.6316 9.33517 27.5021 9.29937 27.3502 9.26198C27.1541 9.21373 26.9221 9.18886 26.5508 9.17634C26.2021 9.1646 26.0048 9.14447 25.9589 9.11593C25.9211 9.09239 25.8356 8.95933 25.7691 8.82028C25.2642 7.76588 24.4197 7.10584 23.2815 6.87616L23.1834 6.85638L23.2651 6.82515C23.3101 6.80799 23.4352 6.79668 23.543 6.79995C23.9341 6.81192 23.9469 6.78208 23.5921 6.68535C23.3012 6.60606 22.8388 6.59082 22.6149 6.65312ZM27.9856 8.18479C28.0409 8.28976 28.1538 8.39544 28.39 8.56313C28.5498 8.67659 28.6596 8.79197 28.6596 8.84655C28.6596 8.85926 28.5029 8.7969 28.3113 8.70795C27.8688 8.50249 27.8246 8.50622 27.7399 8.75604C27.7045 8.86065 27.6814 8.9522 27.6888 8.9595C27.6961 8.96679 27.8035 9.00065 27.9275 9.03473C28.2392 9.12047 28.6664 9.30213 28.9557 9.47199L29.199 9.61483L29.304 9.49566C29.3618 9.43012 29.4096 9.36692 29.4103 9.35518C29.4133 9.30278 29.0874 8.94759 28.8372 8.73068C28.5897 8.51607 28.0079 8.09561 27.9584 8.09561C27.9475 8.09561 27.9598 8.13573 27.9856 8.18479ZM13.1792 8.21929C13.1972 8.23813 13.484 8.32118 13.8165 8.40387C14.4923 8.57192 14.7247 8.67471 14.9313 8.89707C15.0744 9.05107 15.2151 9.32194 15.2441 9.49942C15.276 9.69457 15.1935 9.74438 14.2908 10.0742C13.8413 10.2385 13.4036 10.3959 13.3182 10.4241C13.2327 10.4522 13.1629 10.4888 13.1629 10.5053C13.1629 10.5233 13.3708 10.5288 13.6778 10.5191C14.0744 10.5064 14.2453 10.4868 14.4216 10.4335C14.7789 10.3255 15.2024 10.2685 15.6476 10.2686C16.3903 10.2687 17.0139 10.4059 17.618 10.702C18.003 10.8907 18.0037 10.8905 17.8629 10.6088C17.7267 10.3365 17.5546 10.1541 17.2129 9.91992C17.0263 9.79199 16.7559 9.59132 16.612 9.47406C16.4682 9.35677 16.2432 9.17397 16.112 9.06784C15.8205 8.83209 15.5268 8.68973 15.0019 8.52986C14.7816 8.46276 14.6014 8.39596 14.6014 8.38143C14.6014 8.36691 14.7289 8.35504 14.8847 8.35504C15.0406 8.35504 15.1607 8.34774 15.1517 8.33886C15.0732 8.2609 13.1051 8.14163 13.1792 8.21929ZM21.14 8.29051C20.4693 8.33921 19.9463 8.44804 19.1985 8.69459C18.9627 8.77232 18.6852 8.8541 18.5818 8.87629C18.4784 8.89847 18.3938 8.92691 18.3938 8.93949C18.3938 8.97756 18.6743 9.00347 19.1095 9.00564C19.6747 9.00846 19.5273 9.06356 18.8352 9.10821C17.9662 9.16425 17.3381 9.0692 16.7297 8.78957C16.4956 8.68198 16.1626 8.58359 16.029 8.58252C15.9149 8.58161 16.9589 9.43132 17.3535 9.66059C17.5439 9.77123 17.5599 9.77101 17.6281 9.65657C17.7256 9.49284 17.8483 9.44715 18.2327 9.43142C18.6702 9.41355 19.1489 9.4678 19.543 9.57994C20.0148 9.71419 20.1494 9.70239 20.7151 9.47731C20.9758 9.37357 21.3657 9.20384 21.5814 9.10014C21.973 8.91192 22.7094 8.46863 22.7094 8.42113C22.7094 8.40731 22.6248 8.373 22.5214 8.34492C22.2848 8.28062 21.6311 8.25487 21.14 8.29051ZM12.2311 9.94589C11.8175 10.0323 10.1183 10.3808 8.45502 10.7202C6.79175 11.0597 5.39819 11.3451 5.35827 11.3545C5.20775 11.3899 5.20824 11.4482 5.36661 12.3509C5.78211 14.7187 6.24975 16.6419 6.90248 18.6671C7.00308 18.9793 7.0905 19.2718 7.09678 19.3172C7.10302 19.3626 7.22222 19.5999 7.36166 19.8446C7.61238 20.2846 7.61631 20.2894 7.71635 20.2725C7.83153 20.2531 9.64189 20.0616 9.71029 20.0616C9.73775 20.0616 9.78754 20.1649 9.8392 20.3291C10.0065 20.8612 10.3369 21.4373 10.7183 21.8619C10.8919 22.0553 11.8137 22.9172 12.0425 23.1001L12.1154 23.1584L10.6694 24.7817C9.26605 26.357 9.21966 26.4134 9.09951 26.6879C8.97727 26.9671 8.97544 26.9774 8.95693 27.4966C8.93866 28.0105 8.94026 28.0282 9.02709 28.2658C9.07597 28.3996 9.1799 28.6421 9.25807 28.8048C9.42756 29.1575 9.64588 29.3751 10.1878 29.731C10.6932 30.063 11.1274 30.2488 12.035 30.5216C12.1968 30.5702 12.3408 30.6201 12.355 30.6325C12.3691 30.6449 12.2499 30.7152 12.0901 30.7889C11.9303 30.8625 11.7823 30.9435 11.7611 30.9687C11.7316 31.004 11.7425 31.3426 11.8083 32.4371C11.8554 33.2195 11.9077 33.9139 11.9245 33.9803C11.9455 34.0628 11.9982 34.1344 12.0916 34.2073C12.3127 34.3798 12.4935 34.5704 12.5775 34.7195C12.6208 34.7963 12.6817 34.8748 12.713 34.8941C12.7546 34.9196 13.157 34.9015 14.2126 34.8263C15.0966 34.7633 15.6839 34.7343 15.7292 34.7514C15.7698 34.7667 16.0586 35.0681 16.371 35.4211C17.9488 37.2041 19.1792 38.4048 21.418 40.3462C21.8855 40.7516 22.302 41.1056 22.3436 41.1328C22.4115 41.1773 22.4298 41.1771 22.5234 41.1316C22.6308 41.0794 23.5149 40.3262 24.4911 39.4553C26.1683 37.959 27.5712 36.5419 28.7684 35.1346C28.9153 34.9619 29.0802 34.7985 29.1348 34.7715C29.2248 34.7271 29.3568 34.7315 30.5406 34.8176C31.2592 34.8699 31.9237 34.9129 32.0173 34.9132C32.2025 34.9136 32.1846 34.9281 32.3956 34.6073C32.4536 34.5191 32.5893 34.3795 32.6972 34.2969C32.8051 34.2144 32.9142 34.1043 32.9397 34.0524C32.9853 33.9593 33.0082 33.6795 33.1162 31.8894C33.1407 31.4836 33.1699 31.1425 33.181 31.1315C33.1921 31.1205 33.3746 31.1306 33.5867 31.1539C34.2153 31.2232 34.5847 31.214 34.8673 31.1222C35.5108 30.9131 36.0887 30.3161 36.3292 29.6116C36.4378 29.2936 36.4537 28.8443 36.3664 28.5577C36.3048 28.3553 35.8308 27.4845 34.6737 25.448C33.8404 23.9814 33.7276 23.8189 33.446 23.6786C33.3758 23.6436 33.3129 23.6114 33.3062 23.607C33.2995 23.6026 33.3402 23.5297 33.3968 23.4451C33.6949 22.9986 33.6654 22.4448 33.2578 20.8323C33.1337 20.3416 33.0563 20.0984 32.9965 20.011C32.9497 19.9427 32.9165 19.8818 32.9227 19.8756C32.944 19.8546 35.4449 20.12 36.6828 20.2747C37.0408 20.3195 37.3444 20.3445 37.3574 20.3304C37.3705 20.3163 37.4994 20.0713 37.6439 19.7859C37.8394 19.3997 37.9536 19.1186 38.0906 18.6865C38.7458 16.6188 39.308 14.2906 39.678 12.1121C39.7834 11.4917 39.7804 11.3958 39.6547 11.3592C39.6222 11.3497 38.014 11.0194 36.081 10.6251C34.148 10.2308 32.4389 9.8788 32.2829 9.8429C32.127 9.80703 31.9484 9.78226 31.886 9.78787C31.7922 9.79633 32.2807 10.0222 34.7135 11.0952C36.331 11.8086 37.6755 12.4153 37.7014 12.4435C37.7708 12.5192 37.7622 12.5992 37.6033 13.3557C37.3057 14.773 37.0253 15.9284 36.7353 16.9322C36.541 17.6049 36.5249 17.6477 36.4571 17.6736C36.4274 17.6848 36.0327 17.6507 35.58 17.5976C33.7899 17.388 32.5105 17.2666 30.6065 17.1257C29.9961 17.0806 29.4917 17.0388 29.4857 17.0328C29.4796 17.0268 29.6334 16.9678 29.8272 16.9017C30.5813 16.6444 31.0832 16.3368 31.5447 15.8489C32.6775 14.6517 32.8248 12.7873 31.8924 11.4495C31.6777 11.1414 31.2783 10.7221 31.1997 10.7222C31.155 10.7223 31.1917 10.7872 31.3507 10.9898C31.6257 11.34 31.7307 11.5156 31.8929 11.8961C32.047 12.2576 32.1482 12.6301 32.0763 12.5709C32.0522 12.5511 31.9787 12.4016 31.913 12.2387C31.7467 11.8266 31.4576 11.4211 31.0143 10.9782C30.6091 10.5734 30.2823 10.3359 29.8584 10.1383C29.4388 9.94262 29.4249 9.95059 29.7086 10.2244C30.0257 10.5305 30.134 10.6935 30.297 11.1106C30.3691 11.2948 30.4871 11.5192 30.5726 11.6344C31.1567 12.4213 31.2415 13.3962 30.8048 14.3042C30.6274 14.673 30.416 14.951 30.1365 15.183C29.8779 15.3976 29.3561 15.66 29.0355 15.7366C28.7219 15.8115 28.1581 15.8102 27.8586 15.7339C26.8138 15.4677 26.0913 14.6286 25.9689 13.5392C25.8635 12.601 26.3385 11.6213 27.1647 11.0731C27.4134 10.9081 27.4131 10.9062 27.123 10.7794C26.7429 10.6132 26.666 10.6315 26.325 10.969C25.8461 11.4427 25.4681 12.0712 25.3224 12.6355C25.2334 12.9804 25.2031 13.5963 25.2572 13.9631C25.4546 15.3024 26.1929 16.2513 27.4321 16.7583C27.8376 16.9242 27.8368 16.963 27.4284 16.9406L27.1039 16.9229L25.3725 16.0629C23.7072 15.2357 23.6383 15.1979 23.5676 15.0721C23.5271 15.0002 23.494 14.9332 23.494 14.9234C23.494 14.8687 23.5891 14.9258 23.7612 15.0839C23.8968 15.2084 23.982 15.2622 24.0435 15.2621C24.133 15.2619 24.344 15.1541 24.344 15.1084C24.344 15.0946 24.2925 14.9533 24.2296 14.7943C24.1667 14.6353 24.1152 14.4895 24.1153 14.4702C24.1156 14.4142 24.2662 14.608 24.4501 14.9012C24.5438 15.0505 24.6394 15.1798 24.6626 15.1887C24.6858 15.1975 24.7498 15.1863 24.8048 15.1637C24.9195 15.1165 24.9208 15.1272 24.754 14.7535C24.4935 14.1698 24.3819 13.4069 24.4737 12.8382C24.5865 12.1401 24.938 11.4367 25.4582 10.8682L25.666 10.6412L25.5081 10.6312C25.2978 10.6178 25.1657 10.7065 24.8941 11.0431C24.4891 11.5453 24.1645 12.23 24.0639 12.7949C23.9904 13.2073 23.9539 13.263 23.9527 12.9645C23.9517 12.7332 23.9889 12.5243 24.1204 12.022C24.1995 11.7201 24.4505 11.2331 24.688 10.921C24.7881 10.7894 24.8626 10.6746 24.8537 10.6657C24.8114 10.6238 24.5261 10.7042 24.3875 10.7971C24.1918 10.9283 23.9236 11.2774 23.7536 11.6222C23.6785 11.7744 23.6012 11.8897 23.5742 11.8897C23.5481 11.8897 23.5267 11.8758 23.5267 11.8589C23.5267 11.7732 23.7044 11.2912 23.8195 11.0648C23.8914 10.9232 23.9462 10.8033 23.9412 10.7984C23.9362 10.7934 23.7637 10.8267 23.5578 10.8724C23.0226 10.9913 22.3678 11.2119 21.9204 11.4242L21.534 11.6075L21.7223 11.8071C21.8426 11.9347 21.9257 12.057 21.9526 12.1459C21.9757 12.2225 21.9883 12.2914 21.9807 12.299C21.9729 12.3067 21.8911 12.2102 21.7988 12.0848C21.561 11.7615 21.3711 11.6603 21.2199 11.7762C21.1582 11.8234 21.1592 11.8269 21.2545 11.8971C21.8787 12.3567 22.0496 12.8781 21.7957 13.5483C21.7101 13.7743 21.4852 14.04 21.4017 14.0138C21.3599 14.0006 21.3383 14.0172 21.3241 14.0735C21.2937 14.1936 21.1397 14.2431 20.9389 14.1971C20.718 14.1465 20.5367 14.1496 20.1033 14.2116C19.7401 14.2635 19.7355 14.2633 19.5896 14.1932C19.4604 14.1312 19.4092 14.1251 19.1715 14.1434C18.4772 14.1967 17.6579 14.383 16.8208 14.678C16.5314 14.78 16.4329 14.8295 16.407 14.886C16.3595 14.9893 16.0333 15.3321 15.9206 15.3971C15.8317 15.4484 15.8183 15.4472 15.6312 15.3714C15.2828 15.2303 14.793 15.0923 14.2745 14.989L13.7677 14.888L13.7256 14.6941C13.6226 14.2193 13.7442 13.4728 14.0047 12.9811C14.2584 12.5023 14.5641 12.3039 15.2592 12.167C15.4862 12.1223 15.7931 12.0414 15.9413 11.9872C16.0895 11.933 16.3523 11.8661 16.5252 11.8384C16.6981 11.8108 16.8453 11.7826 16.8522 11.7758C16.8757 11.7524 16.5505 11.5654 16.3695 11.4983C15.6411 11.2279 14.8267 11.3848 14.1856 11.9189C13.4843 12.5031 13.148 13.3432 13.2066 14.3642C13.2181 14.5638 13.2358 14.7567 13.2461 14.7929C13.2636 14.8544 13.2425 14.8609 12.9114 14.896C11.8785 15.0054 11.0418 15.536 10.4046 16.4856C10.2038 16.7848 9.89409 17.3931 9.8937 17.4891C9.8935 17.531 9.81111 17.5516 9.51756 17.583C9.40967 17.5945 9.22113 17.6243 9.09859 17.6491C8.83482 17.7026 8.6059 17.7072 8.51861 17.6609C8.42482 17.6111 8.36054 17.4645 8.28793 17.1344C8.25206 16.9714 8.1499 16.5681 8.06094 16.2383C7.77526 15.1793 7.24537 12.7986 7.24537 12.5741C7.24537 12.5242 7.27113 12.4606 7.30258 12.4327C7.33406 12.4047 7.92621 12.1344 8.61849 11.8318C10.1776 11.1504 12.5619 10.0931 12.934 9.9181C13.1848 9.80022 13.2007 9.78751 13.0975 9.7881C13.0346 9.78845 12.6447 9.85944 12.2311 9.94589ZM18.7208 10.7931C18.7208 11.0205 18.3938 11.378 17.963 11.6217C17.8313 11.6962 17.2896 11.9308 16.7592 12.1431C16.2287 12.3554 15.6696 12.5913 15.5168 12.6674C14.75 13.0493 14.268 13.5008 14.1918 13.9086C14.164 14.0573 14.1962 14.292 14.2556 14.3725C14.296 14.4274 14.3228 14.4082 14.6057 14.1219C14.9485 13.7749 15.1655 13.6343 15.775 13.3641C16.765 12.9252 17.8574 12.7009 18.8188 12.7392C19.2607 12.7568 19.2895 12.7523 19.3324 12.6584C19.3504 12.6191 19.3969 12.5167 19.4357 12.431C19.4754 12.3435 19.5851 12.2016 19.6857 12.1076C19.8146 11.9873 19.865 11.9163 19.865 11.8551C19.865 11.7383 19.6501 11.421 19.4369 11.223C19.2798 11.0771 18.7849 10.7223 18.7386 10.7223C18.7288 10.7223 18.7208 10.7542 18.7208 10.7931ZM14.1762 11.5957C13.6702 11.7484 13.1454 12.4575 13.0787 13.0788C13.0548 13.3006 13.1048 13.3022 13.1617 13.0814C13.2248 12.8369 13.4541 12.4119 13.6577 12.1624C13.7541 12.0442 13.9406 11.8615 14.072 11.7564C14.2035 11.6514 14.2991 11.5667 14.2846 11.5682C14.27 11.5697 14.2212 11.5821 14.1762 11.5957ZM28.0711 12.1059C27.8678 12.1762 27.601 12.3576 27.4826 12.5059C27.4281 12.5741 27.3433 12.7151 27.2941 12.8192C27.2144 12.9878 27.2047 13.0457 27.2047 13.3496C27.2047 13.6697 27.2113 13.7042 27.312 13.9069C27.6161 14.5197 28.4696 14.8245 29.068 14.5341C29.2837 14.4294 29.5447 14.1773 29.6405 13.9811C29.7068 13.8452 29.7073 13.8343 29.6557 13.6354C29.5093 13.0712 29.1021 12.2693 28.8885 12.1248C28.7967 12.0627 28.7389 12.0521 28.4994 12.0534C28.3321 12.0543 28.1586 12.0755 28.0711 12.1059ZM20.2352 12.1354C20.0589 12.1999 19.822 12.4077 19.7113 12.5952C19.641 12.7141 19.6211 12.7953 19.6098 13.0103C19.5974 13.244 19.6058 13.2996 19.677 13.4538C19.9726 14.0942 20.7857 14.2444 21.2835 13.7506C21.4346 13.6008 21.5737 13.3206 21.5591 13.1953L21.5487 13.1057L21.1973 13.0965C20.8655 13.0878 20.7729 13.0603 20.903 13.0091C20.9345 12.9967 21.0632 12.9499 21.1891 12.905C21.4634 12.8074 21.515 12.7652 21.4883 12.6599C21.4564 12.5337 21.211 12.2828 21.0297 12.1909C20.8198 12.0846 20.4457 12.0585 20.2352 12.1354ZM20.0672 12.8109C20.0585 13.0667 20.0683 13.1425 20.1274 13.2789C20.1662 13.3684 20.2261 13.4668 20.2604 13.4976C20.3384 13.5676 20.338 13.6363 20.2592 13.73C20.1752 13.8298 20.1492 13.8233 20.0158 13.6687C19.7461 13.3561 19.7336 12.8509 19.9885 12.5626C20.016 12.5313 20.0474 12.5058 20.0581 12.5058C20.0688 12.5057 20.0729 12.643 20.0672 12.8109ZM18.0543 13.1251C17.2534 13.2089 16.17 13.5217 15.5011 13.8623C14.9912 14.1219 14.4706 14.5558 14.4706 14.7212C14.4706 14.8119 14.5991 14.9368 14.7975 15.039C14.9113 15.0975 14.9966 15.1146 15.1735 15.1141C15.4629 15.1133 15.6853 15.0021 15.9026 14.7498C16.0741 14.5507 16.2409 14.4584 16.7917 14.258C17.5379 13.9865 18.3331 13.8231 19.1102 13.7816C19.5025 13.7607 19.5059 13.7598 19.4621 13.6926C19.4125 13.6163 19.3236 13.3783 19.2949 13.245C19.2804 13.1776 19.2477 13.1495 19.1537 13.1236C19.0129 13.0848 18.4318 13.0856 18.0543 13.1251ZM29.2844 13.3237C29.3235 13.3996 29.3616 13.5475 29.37 13.6561C29.383 13.8232 29.3739 13.8681 29.3076 13.9651C29.2273 14.0824 28.9476 14.2894 28.8692 14.2894C28.8448 14.2894 28.8883 14.2263 28.9661 14.1491C29.1625 13.9544 29.2233 13.7801 29.2098 13.4508C29.2039 13.3055 29.2024 13.1867 29.2065 13.1867C29.2106 13.1868 29.2457 13.2484 29.2844 13.3237ZM15.5954 14.7468C15.4308 14.9274 15.1322 14.9863 14.9028 14.8834L14.7812 14.829L15.0427 14.8051C15.1866 14.792 15.3705 14.7596 15.4514 14.7331C15.6531 14.6671 15.6669 14.6684 15.5954 14.7468ZM20.8567 14.9992C20.9207 15.0628 20.9267 15.0983 20.9183 15.3685C20.9131 15.533 20.8066 16.9006 20.6816 18.4077C20.5565 19.9148 20.4455 21.2573 20.435 21.3911C20.4113 21.6921 20.3683 21.836 20.2896 21.8778C20.1991 21.9258 19.355 21.917 19.1621 21.866C18.6941 21.7423 18.4141 21.4124 18.277 20.8235C18.1184 20.1423 18.0602 19.9394 17.9487 19.6811C17.5884 18.8456 16.9681 18.1235 16.4322 17.9156C16.175 17.8158 15.7797 17.8143 15.5939 17.9124C15.4065 18.0113 15.2416 18.2139 15.1735 18.4286C15.1263 18.5773 15.1193 18.6829 15.1342 19.0194C15.1441 19.2448 15.1763 19.5168 15.2056 19.6238C15.2926 19.9408 15.5581 20.4458 15.7684 20.6939C16.21 21.215 17.4411 22.1578 19.4641 23.5241C19.8639 23.7941 20.2726 24.0748 20.3723 24.1479C20.8901 24.5273 21.4911 25.0916 21.6818 25.3773L21.7684 25.5072L21.119 26.1812C20.1486 27.1882 19.672 27.7107 19.5449 27.9065C19.3867 28.1504 19.2828 28.4182 19.1916 28.817C19.1014 29.2114 19.0945 29.432 19.1633 29.7217C19.1904 29.8357 19.2049 29.9367 19.1954 29.9461C19.186 29.9554 18.6229 29.9827 17.9442 30.0067C17.2654 30.0306 16.0367 30.0772 15.2136 30.1102L13.7172 30.1703L13.307 30.0787C12.573 29.9147 11.6108 29.6188 11.1359 29.411C10.8459 29.2841 10.2443 28.8682 10.0564 28.6647C9.73154 28.3127 9.57922 27.8207 9.66406 27.3974C9.75416 26.9477 9.78372 26.9082 11.3052 25.2034C12.0842 24.3305 12.7368 23.6117 12.7554 23.6059C12.809 23.5893 13.3918 24.0797 13.3913 24.141C13.3911 24.1713 13.1176 24.5099 12.7836 24.8933C12.4496 25.2768 12.1482 25.6343 12.1139 25.6878C12.0324 25.815 12.0336 25.9972 12.1167 26.102C12.1848 26.1878 12.8015 26.6023 13.3514 26.9317C14.5467 27.6478 16.1912 28.232 17.2537 28.3179C17.5148 28.3391 17.9029 28.2609 18.4405 28.0789C18.8819 27.9295 19.026 27.7168 18.8909 27.4139C18.8017 27.2139 18.5242 26.9863 17.2496 26.0673C14.5748 24.1389 14.0732 23.7672 13.2613 23.1117C12.3119 22.3453 11.5515 21.671 11.2559 21.3332C10.8767 20.9001 10.6278 20.4148 10.4737 19.8088C10.3688 19.3959 10.3719 18.618 10.4803 18.1807C10.6625 17.4453 10.9735 16.8846 11.4792 16.38C11.7367 16.123 11.8618 16.0252 12.0685 15.9195C12.7697 15.5609 13.4361 15.5369 14.5839 15.8289C15.8809 16.1588 16.8216 16.7769 17.5953 17.8074L17.8871 18.1961L17.8962 17.9695C17.9012 17.8449 17.8927 17.2468 17.8772 16.6404C17.8608 15.9979 17.8612 15.4933 17.8782 15.431C17.8985 15.3565 17.9389 15.3101 18.0116 15.2776C18.069 15.2521 18.5205 15.1781 19.015 15.1133C19.5095 15.0485 20.0391 14.9764 20.192 14.9529C20.5654 14.8957 20.7666 14.9097 20.8567 14.9992ZM17.1611 15.173C17.1346 15.2488 17.1048 15.4164 17.0948 15.5454L17.0767 15.7799L16.8971 15.8465C16.7983 15.8832 16.7084 15.909 16.6974 15.9039C16.6864 15.8987 16.5489 15.8226 16.3919 15.7347L16.1064 15.5749L16.3266 15.505C16.6029 15.4173 16.8316 15.3015 17.0207 15.1536C17.1016 15.0903 17.1771 15.0378 17.1885 15.0369C17.1999 15.036 17.1876 15.0972 17.1611 15.173ZM22.8238 15.6212C23.2733 15.8587 25.5844 17.0132 27.9595 18.1867C30.3345 19.3602 32.3023 20.3471 32.3322 20.3799C32.3899 20.4432 32.6689 21.5481 32.7794 22.1507C32.886 22.7322 32.855 23.0052 32.6688 23.1262C32.4683 23.2565 32.304 23.2755 31.1606 23.3008C30.343 23.3189 30.0253 23.3369 29.9591 23.3688C29.9097 23.3926 29.8692 23.4218 29.8692 23.4337C29.8692 23.4456 30.2848 23.5618 30.7928 23.6918C32.2748 24.0711 32.9831 24.2742 33.1059 24.355C33.1855 24.4074 33.2811 24.5375 33.4206 24.7834C33.5308 24.9776 33.8751 25.5816 34.1857 26.1256C35.1492 27.813 35.6166 28.6816 35.6539 28.854C35.6808 28.9787 35.678 29.0666 35.6412 29.2413C35.5792 29.5363 35.4572 29.7552 35.2083 30.0179C34.9877 30.2508 34.7739 30.3838 34.5352 30.4369C34.2173 30.5076 33.1131 30.3636 31.5693 30.0501C30.0012 29.7317 29.6532 29.6887 28.1176 29.6243C26.7181 29.5656 25.3679 29.6445 23.9111 29.8703C23.3986 29.9497 23.3354 29.9521 21.7408 29.9521H20.0983L20.0373 29.8629C19.8289 29.5584 19.8233 29.27 20.0144 28.6874C20.0582 28.5536 20.1346 28.3838 20.1839 28.3101C20.3986 27.9894 22.9281 25.383 23.9027 24.4783C24.9794 23.4788 25.2474 23.2118 25.3082 23.078C25.3629 22.9578 25.3618 22.9351 25.2772 22.3913C25.191 21.8376 25.0667 21.1399 24.9963 20.814C24.9547 20.6218 24.8752 20.5095 24.7057 20.4033C24.6394 20.3618 24.1742 20.1642 23.6718 19.9641C23.1694 19.764 22.6904 19.5662 22.6074 19.5245C22.4711 19.456 22.2843 19.2816 22.2843 19.2227C22.2843 19.21 22.2478 18.9959 22.2032 18.7469C22.0638 17.9699 21.6959 15.5583 21.6959 15.4222C21.6959 15.3509 21.7177 15.2406 21.7445 15.1772L21.7931 15.0618L21.8998 15.1256C21.9584 15.1606 22.3742 15.3836 22.8238 15.6212ZM30.6048 18.18C31.7534 18.2633 35.1765 18.5616 35.4925 18.606C35.6273 18.6249 35.7524 18.6549 35.7704 18.6726C35.8178 18.7193 35.1753 18.6944 32.4657 18.5444L30.1091 18.4139L29.8175 18.2665C29.4661 18.0889 29.4189 18.0941 30.6048 18.18ZM9.63199 18.6509C9.63199 18.6996 9.52034 18.7155 9.28871 18.6998C9.03416 18.6825 9.17958 18.6162 9.49304 18.6066C9.59668 18.6034 9.63199 18.6146 9.63199 18.6509ZM21.6286 19.5846C21.7332 19.8057 21.9957 20.0631 22.243 20.1869C22.3519 20.2414 22.8131 20.4336 23.2679 20.6139C23.7228 20.7943 24.1346 20.9621 24.183 20.987C24.2631 21.0281 24.2774 21.0654 24.34 21.3981C24.467 22.0728 24.576 22.7866 24.5568 22.8174C24.5464 22.8342 24.1896 23.1732 23.7639 23.5707C23.3382 23.9682 22.8391 24.4403 22.6549 24.6199L22.3198 24.9464L22.0734 24.662C21.6348 24.1558 21.0693 23.6917 20.0848 23.03C19.8021 22.84 19.5708 22.6778 19.5708 22.6697C19.5708 22.6615 19.7365 22.6574 19.939 22.6605C20.4326 22.668 20.5991 22.6139 20.8512 22.3638C21.1254 22.0919 21.1507 21.9825 21.256 20.6128C21.3033 19.9975 21.3476 19.4758 21.3544 19.4535C21.3613 19.4312 21.4078 19.4136 21.4578 19.4143C21.5349 19.4155 21.5609 19.4413 21.6286 19.5846ZM17.1667 19.8C17.3141 20.0903 17.3951 20.3351 17.4912 20.7805C17.5348 20.9826 17.5808 21.1734 17.5933 21.2046C17.6059 21.2358 17.6034 21.2614 17.5879 21.2614C17.5315 21.2614 16.8015 20.6596 16.5287 20.3882C16.3309 20.1915 16.2129 20.0407 16.1251 19.8727C16.0569 19.7421 16.0086 19.6278 16.0177 19.6187C16.0375 19.5991 16.993 19.5515 17.0297 19.5683C17.0436 19.5747 17.1053 19.679 17.1667 19.8ZM28.0435 21.7255C27.9992 21.7784 28.172 22.7963 28.251 22.9479C28.3121 23.065 28.4778 23.1743 28.5947 23.1745C28.6399 23.1746 28.7394 23.1415 28.8158 23.101C28.9811 23.0133 29.7057 22.4958 29.7057 22.4655C29.7057 22.4372 28.1811 21.683 28.1239 21.683C28.0993 21.683 28.0631 21.7021 28.0435 21.7255ZM28.2999 23.962C28.2999 24.1707 28.4273 26.3757 28.4507 26.5721C28.4737 26.7648 28.5513 26.8493 28.7537 26.902C28.9875 26.9629 30.6316 27.1968 30.692 27.1778C30.7259 27.1671 30.7766 27.1238 30.8045 27.0815C30.851 27.011 30.8494 26.9819 30.7853 26.7353C30.6081 26.0533 30.3335 25.2268 30.1912 24.9472C30.0028 24.577 29.685 24.2922 29.2745 24.1257C29.1109 24.0593 28.3588 23.8232 28.311 23.8232C28.3049 23.8232 28.2999 23.8857 28.2999 23.962ZM25.2102 24.1276C25.1924 24.1523 25.017 24.3821 24.8205 24.6383C24.6241 24.8945 24.3465 25.2792 24.2038 25.4932C23.9407 25.8878 23.494 26.62 23.494 26.6568C23.494 26.694 24.4478 26.6778 24.5805 26.6383C24.6519 26.6171 24.7297 26.5697 24.7536 26.533C24.8217 26.4281 25.0615 25.6907 25.1497 25.3149C25.2201 25.0148 25.3005 24.0826 25.2559 24.0826C25.2487 24.0826 25.2281 24.1029 25.2102 24.1276ZM15.9549 26.0607C17.0071 26.8187 17.8687 27.4464 17.8694 27.4554C17.8701 27.4645 17.756 27.4975 17.6158 27.5288C17.3796 27.5814 17.3391 27.5819 17.0681 27.5355C15.7727 27.3133 14.4722 26.7839 13.261 25.9856C13.1261 25.8967 13.0108 25.82 13.0047 25.8152C12.9835 25.7983 13.9866 24.663 14.0141 24.6728C14.0293 24.6781 14.9026 25.3027 15.9549 26.0607ZM29.2909 24.994C29.3586 25.0494 29.4555 25.177 29.5063 25.2777C29.6096 25.483 29.8847 26.2832 29.8602 26.3075C29.8458 26.3218 29.2132 26.2316 29.194 26.2125C29.18 26.1987 29.1179 25.2779 29.1176 25.0798C29.1174 24.9772 29.1286 24.8933 29.1425 24.8933C29.1564 24.8933 29.2232 24.9386 29.2909 24.994ZM31.6053 31.4206C31.6664 31.4613 31.7207 31.5244 31.7261 31.5608C31.7314 31.5971 31.5953 31.9232 31.4237 32.2854C31.252 32.6476 31.1116 32.9492 31.1116 32.9556C31.1116 32.9621 31.2905 32.9578 31.5091 32.9461C31.8073 32.9303 31.9008 32.9344 31.8831 32.9627C31.8699 32.9839 31.8784 33.0008 31.9025 33.0014C31.9309 33.002 31.926 33.0169 31.888 33.0455C31.8193 33.0972 31.8146 33.13 31.8759 33.13C31.9006 33.13 31.9401 33.153 31.9637 33.1811C32.0249 33.2543 31.9709 33.279 31.6539 33.3227C31.5085 33.3428 31.2081 33.4041 30.9864 33.459L30.5833 33.5588L30.4878 33.4681C30.3717 33.3577 30.3667 33.2568 30.4706 33.1198C30.6308 32.9084 31.1256 31.8546 31.2075 31.5502C31.2651 31.3362 31.4086 31.2894 31.6053 31.4206ZM19.5023 31.4411C19.5681 31.4977 19.5696 31.5061 19.5194 31.534C19.4689 31.562 19.4706 31.5733 19.5397 31.666C19.5812 31.7217 19.6071 31.7753 19.5971 31.7852C19.5872 31.795 19.4271 31.8207 19.2414 31.8423L18.9036 31.8816L18.5532 32.5788C18.3605 32.9622 18.1763 33.3466 18.1438 33.4328C18.0686 33.6322 17.9978 33.6738 17.8781 33.5891C17.682 33.4505 17.6578 33.4019 17.7015 33.234C17.7233 33.1501 17.866 32.8366 18.0185 32.5374C18.171 32.2381 18.2957 31.9884 18.2957 31.9823C18.2957 31.9763 18.2332 31.9834 18.1568 31.998C17.788 32.0688 17.6427 32.0167 17.5613 31.7843C17.5238 31.6775 17.5233 31.6431 17.5582 31.5897C17.5937 31.5354 17.6528 31.5208 17.9236 31.5C18.1013 31.4864 18.3938 31.4553 18.5736 31.4309C19.0831 31.3618 19.4144 31.3654 19.5023 31.4411ZM23.2905 31.4294C23.3468 31.4685 23.3632 31.5119 23.3632 31.6217C23.3632 31.8073 23.3026 31.8652 23.1075 31.8658C23.0234 31.8661 22.864 31.8875 22.7533 31.9134C22.5322 31.9651 22.1095 32.1243 22.1326 32.1472C22.1406 32.1552 22.2552 32.1764 22.3874 32.1944C22.5195 32.2125 22.7038 32.2526 22.797 32.2837L22.9664 32.3402L23.0864 32.1841C23.2888 31.9208 23.5499 31.7281 23.87 31.6059C24.0248 31.5467 24.135 31.5303 24.3931 31.5279C24.6884 31.5251 24.7306 31.5324 24.8299 31.6026C24.9304 31.6737 24.9383 31.6914 24.9224 31.8092C24.9128 31.8801 24.891 31.952 24.8738 31.969C24.8567 31.986 24.6827 32.0026 24.4871 32.006C24.2011 32.0109 24.1015 32.0258 23.978 32.082C23.6767 32.2193 23.3632 32.6288 23.3632 32.885C23.3632 33.0566 23.4663 33.1082 23.842 33.1245C24.0102 33.1318 24.1479 33.1506 24.1479 33.1663C24.1479 33.1821 24.1736 33.1952 24.2051 33.1955C24.2442 33.1958 24.2288 33.2173 24.1561 33.2635C24.0516 33.3298 24.0409 33.3895 24.1334 33.3895C24.1594 33.3895 24.1806 33.4049 24.1806 33.4238C24.1806 33.4427 24.1972 33.448 24.2175 33.4355C24.2397 33.4219 24.2485 33.4304 24.2396 33.457C24.2163 33.5263 24.0971 33.5449 23.6544 33.5484C23.2841 33.5513 23.2284 33.5441 23.1004 33.4769C23.0129 33.431 22.9195 33.3438 22.8582 33.2505C22.7956 33.1553 22.7402 33.104 22.7094 33.1127C22.6824 33.1203 22.5353 33.1722 22.3824 33.2281C22.1349 33.3186 21.2017 33.584 21.1311 33.584C21.1159 33.584 21.1126 33.5694 21.1237 33.5516C21.1348 33.5338 21.1275 33.5192 21.1074 33.5192C21.0873 33.5192 21.0788 33.5064 21.0885 33.4909C21.0982 33.4753 21.0624 33.4173 21.009 33.3618L20.9119 33.2611L21.0052 33.2132C21.0565 33.1869 21.2734 33.1132 21.4871 33.0496C21.7008 32.9859 22.0154 32.88 22.1863 32.8142L22.4968 32.6947L22.3007 32.6711C21.7702 32.6073 21.6698 32.5786 21.566 32.4613C21.4489 32.3291 21.4414 32.2273 21.5364 32.0597C21.7343 31.7105 23.0267 31.2461 23.2905 31.4294ZM14.348 31.5136C14.3944 31.5681 14.4052 31.6438 14.4052 31.9157C14.4052 32.0999 14.4188 32.259 14.4354 32.2692C14.452 32.2794 14.6513 32.1051 14.8782 31.882C15.2877 31.4793 15.3333 31.4503 15.5168 31.4752C15.5438 31.4788 15.5987 31.512 15.6388 31.5489C15.693 31.5988 15.7064 31.6376 15.6912 31.7002C15.6575 31.8386 15.3781 32.4653 15.1188 32.9841C14.8661 33.4898 14.8701 33.4856 14.6831 33.449C14.6472 33.442 14.5977 33.4238 14.5731 33.4086C14.499 33.3628 14.5485 33.1225 14.694 32.8218C14.7673 32.6703 14.8212 32.5463 14.8139 32.5463C14.8065 32.5463 14.7481 32.6145 14.684 32.6978C14.5038 32.9318 14.4704 32.947 14.2972 32.8733C14.1721 32.8202 14.1429 32.7888 14.093 32.6545C14.0116 32.4352 13.9961 32.4274 13.9363 32.5756C13.9073 32.6474 13.8004 32.8886 13.6989 33.1116L13.5142 33.5168L13.3631 33.4973C13.1881 33.4747 13.1302 33.4386 13.1302 33.352C13.1302 33.2373 13.2658 32.8895 13.4949 32.4166C13.6202 32.158 13.7673 31.8407 13.8217 31.7115C13.9065 31.5105 13.9357 31.4722 14.0241 31.4462C14.1598 31.4064 14.2774 31.4308 14.348 31.5136ZM17.186 31.4772C17.2485 31.5104 17.3476 31.6683 17.3476 31.7347C17.3476 31.7538 17.3119 31.7856 17.2682 31.8054L17.1888 31.8413L17.2704 31.9636C17.6051 32.4653 17.4303 33.1682 16.9157 33.3901C16.7033 33.4817 16.3009 33.5132 16.0901 33.4546C15.9081 33.4041 15.7129 33.2408 15.5951 33.0406C15.4647 32.8187 15.4663 32.5337 15.5994 32.291C15.7749 31.9712 16.1834 31.6791 16.6766 31.5205C16.9285 31.4395 17.0893 31.4259 17.186 31.4772ZM20.7858 31.4843C20.8543 31.5393 20.9439 31.6761 20.9439 31.7256C20.9439 31.7478 20.9075 31.785 20.8629 31.8081L20.7819 31.8502L20.8774 31.9933C21.0015 32.1793 21.0558 32.4088 21.029 32.6346C20.9674 33.1543 20.6493 33.4405 20.0909 33.4785C19.7724 33.5001 19.5848 33.4515 19.4085 33.3018C19.1273 33.0632 19.031 32.7639 19.1283 32.4318C19.1744 32.2746 19.2208 32.2058 19.4018 32.0267C19.7912 31.6415 20.591 31.328 20.7858 31.4843ZM25.5536 31.561C25.6256 31.6255 25.6845 31.703 25.6845 31.733C25.6845 31.7631 25.6261 31.9073 25.5549 32.0535C25.4836 32.1997 25.4358 32.3188 25.4486 32.318C25.4615 32.3173 25.6162 32.2772 25.7924 32.2288L26.1129 32.141L26.2001 31.9464C26.3663 31.5753 26.4478 31.4609 26.5529 31.4508C26.6724 31.4393 26.8941 31.6089 26.8941 31.7118C26.8941 31.7496 26.835 31.8791 26.7628 31.9997C26.6907 32.1202 26.6237 32.267 26.6141 32.3258L26.5965 32.4328L26.6681 32.3041C26.8394 31.9958 27.2951 31.6684 27.754 31.524C28.1171 31.4098 28.2424 31.4158 28.3473 31.5522C28.4521 31.6885 28.4529 31.7594 28.3501 31.8059L28.2695 31.8423L28.3343 31.9325C28.4479 32.0907 28.5272 32.2987 28.5314 32.4491C28.5353 32.5869 28.5369 32.5893 28.5601 32.4922C28.6546 32.099 29.1437 31.6959 29.75 31.5119C30.108 31.4032 30.2491 31.4254 30.3429 31.6053C30.41 31.734 30.4055 31.7635 30.3124 31.8056L30.2325 31.8417L30.3122 31.958C30.4464 32.1539 30.5013 32.3672 30.4806 32.6119C30.4581 32.8789 30.4014 33.0191 30.2481 33.1874C29.9407 33.5249 29.2229 33.5925 28.8701 33.3173C28.7588 33.2305 28.5615 32.9263 28.5615 32.8417C28.5615 32.7181 28.5084 32.7458 28.4696 32.8896C28.4181 33.0805 28.2139 33.2972 27.9968 33.3914C27.7379 33.5036 27.3217 33.5176 27.0965 33.4215C26.7926 33.2918 26.5999 33.002 26.5999 32.6747C26.5999 32.4484 26.5628 32.4337 26.4462 32.6137C26.4067 32.6748 26.3354 32.7668 26.2879 32.8183C26.159 32.9579 26.0219 33.1937 25.9812 33.3456C25.9615 33.4196 25.9222 33.4889 25.894 33.4996C25.8173 33.5288 25.6869 33.487 25.6517 33.4218C25.6172 33.3579 25.6824 33.0638 25.7669 32.9016C25.7943 32.8492 25.8299 32.7716 25.8461 32.7294L25.8756 32.6525L25.4863 32.7492C25.0686 32.853 24.955 32.9223 24.9164 33.0965C24.9053 33.1468 24.8521 33.2568 24.7982 33.3411C24.709 33.4807 24.6917 33.4925 24.602 33.4747C24.4345 33.4414 24.3934 33.3757 24.4413 33.217C24.4638 33.1424 24.5233 33.0007 24.5734 32.9021C24.6365 32.778 24.6591 32.694 24.6467 32.6295C24.632 32.5534 24.6473 32.5207 24.7295 32.4521C24.8241 32.3732 25.0459 31.9099 25.1078 31.6619C25.1381 31.5405 25.2416 31.4438 25.3411 31.4438C25.389 31.4438 25.4768 31.4923 25.5536 31.561ZM16.6881 31.9741C16.1078 32.2562 15.7544 32.7931 16.0584 32.9305C16.283 33.0321 16.6012 32.9352 16.8385 32.693C17 32.5281 17.0394 32.3932 17.0094 32.1068C17.0002 32.0186 16.9916 31.9355 16.9903 31.9221C16.9859 31.8753 16.8395 31.9005 16.6881 31.9741ZM20.3265 31.948C20.1675 32.0164 19.8268 32.2639 19.7102 32.3956C19.5185 32.6122 19.4919 32.8749 19.6556 32.9366C19.8905 33.0252 20.1841 32.9372 20.4124 32.7097C20.5864 32.5365 20.6324 32.3915 20.6022 32.1119C20.5763 31.8719 20.5456 31.8536 20.3265 31.948ZM27.7605 31.9849C27.5339 32.1014 27.2424 32.334 27.1409 32.4791C27.0278 32.6411 27.0193 32.8263 27.1211 32.9081C27.2795 33.0353 27.6361 32.9588 27.8816 32.745C28.0443 32.6033 28.1134 32.443 28.1101 32.2146C28.1051 31.866 28.0554 31.8332 27.7605 31.9849ZM29.7133 31.9858C29.4536 32.1148 29.1368 32.3886 29.0562 32.5538C28.9668 32.7369 28.9685 32.7908 29.0668 32.8883C29.231 33.0512 29.6083 32.9673 29.8676 32.7101C30.0324 32.5466 30.0655 32.4657 30.0649 32.2281C30.0641 31.8659 30.0182 31.8343 29.7133 31.9858ZM25.2465 34.5564C26.8895 34.5937 27.123 34.6083 27.123 34.6733C27.123 34.791 25.5401 36.4753 24.4252 37.5441C23.5828 38.3517 22.4855 39.3562 22.4459 39.3562C22.3711 39.3562 20.0805 37.1998 19.3619 36.4528C18.4431 35.4979 17.7726 34.7465 17.7726 34.6716C17.7726 34.6094 18.037 34.5911 19.3746 34.5605C21.0514 34.5221 23.6599 34.5203 25.2465 34.5564ZM20.8604 35.1888C20.6358 35.3007 20.3746 35.5037 20.3603 35.5774C20.3537 35.6112 20.3748 35.6581 20.4072 35.6816C20.4738 35.73 20.6824 35.7398 20.6824 35.6946C20.6824 35.6566 21.0061 35.4 21.0541 35.4C21.0939 35.4 20.6109 35.8546 20.1848 36.2181C20.0359 36.3451 19.9096 36.4667 19.9042 36.4883C19.8988 36.5099 19.9622 36.5602 20.0451 36.6C20.2146 36.6813 20.2678 36.6785 20.7755 36.5615C20.9436 36.5227 21.0887 36.4716 21.0979 36.4479C21.1071 36.4242 21.0919 36.3704 21.0642 36.3285C21.019 36.2601 20.9959 36.2539 20.84 36.2688C20.6224 36.2895 20.6204 36.2922 21.1552 35.8382C21.3733 35.653 21.5717 35.4645 21.5961 35.4194C21.6364 35.3447 21.6333 35.3312 21.5618 35.2696C21.3554 35.0916 21.1117 35.0635 20.8604 35.1888ZM22.1 35.1756C21.9734 35.2239 21.8683 35.3056 21.6742 35.5063C21.5324 35.6529 21.391 35.8262 21.36 35.8913C21.2872 36.044 21.2872 36.2704 21.36 36.3735C21.6443 36.7762 22.1084 36.7453 22.5637 36.2934C22.8719 35.9875 22.9508 35.739 22.8021 35.5422C22.6492 35.3398 22.3987 35.1082 22.3345 35.1098C22.2979 35.1108 22.1924 35.1404 22.1 35.1756ZM23.3972 35.2082C23.3206 35.2633 23.176 35.3871 23.0757 35.4834L22.8935 35.6585L23.0178 35.765L23.1421 35.8716L22.9595 36.1931C22.8257 36.4287 22.786 36.5256 22.8111 36.5556C22.8558 36.609 23.0585 36.6749 23.0999 36.6496C23.1176 36.6387 23.2158 36.4735 23.3181 36.2824C23.4204 36.0914 23.5827 35.7926 23.6788 35.6185C23.775 35.4445 23.8536 35.2795 23.8536 35.2521C23.8536 35.2037 23.6732 35.1082 23.5817 35.1082C23.5568 35.1082 23.4738 35.1532 23.3972 35.2082ZM24.3465 35.1907C24.1239 35.2934 23.7338 35.6797 23.6288 35.9013C23.5041 36.1646 23.5694 36.3897 23.8194 36.5585C23.8782 36.5982 23.9767 36.6401 24.0384 36.6515C24.3959 36.7181 25.0071 36.2771 25.1301 35.8638C25.1631 35.7533 25.1625 35.7079 25.127 35.623C25.0649 35.4744 24.6875 35.1081 24.5968 35.1085C24.5567 35.1086 24.444 35.1456 24.3465 35.1907ZM22.548 35.4336C22.6301 35.4771 22.6307 35.6243 22.5493 35.7826C22.4706 35.9355 22.1567 36.2316 22.0079 36.2933C21.877 36.3475 21.5789 36.3564 21.5482 36.3071C21.4757 36.1908 21.9614 35.6143 22.2516 35.4721C22.4173 35.391 22.4578 35.3857 22.548 35.4336ZM24.8271 35.4505C24.9154 35.5118 24.9172 35.5696 24.8362 35.7467C24.6877 36.0711 24.3128 36.3404 24.0096 36.3404C23.8224 36.3404 23.7956 36.3011 23.8671 36.1315C23.9691 35.8892 24.5279 35.4014 24.7045 35.4003C24.732 35.4001 24.7872 35.4227 24.8271 35.4505Z" fill="#23262B"/>
<defs>
<linearGradient id="paint0_linear_156_169" x1="38.65" y1="42" x2="3.75" y2="3.15" gradientUnits="userSpaceOnUse">
<stop stop-color="#68B551"/>
<stop offset="1" stop-color="#3AB177"/>
</linearGradient>
</defs>
</svg>
